<mxfile host="Electron" agent="Mozilla/5.0 (X11; Linux x86_64) AppleWebKit/537.36 (KHTML, like Gecko) draw.io/24.7.5 Chrome/126.0.6478.183 Electron/31.3.0 Safari/537.36" version="24.7.5">
  <diagram id="8qkl6YCMyCijxVX-pLjr" name="第 1 页">
    <mxGraphModel dx="1753" dy="1739" grid="1" gridSize="10" guides="1" tooltips="1" connect="1" arrows="1" fold="1" page="1" pageScale="1" pageWidth="827" pageHeight="1169" math="0" shadow="0">
      <root>
        <mxCell id="0" />
        <mxCell id="1" parent="0" />
        <mxCell id="2" value="" style="rounded=0;whiteSpace=wrap;html=1;" parent="1" vertex="1">
          <mxGeometry x="1121" y="720" width="120" height="400" as="geometry" />
        </mxCell>
        <mxCell id="3" value="&lt;font style=&quot;font-size: 24px;&quot;&gt;0x410&lt;/font&gt;" style="rounded=0;whiteSpace=wrap;html=1;" parent="1" vertex="1">
          <mxGeometry x="1121" y="720" width="120" height="80" as="geometry" />
        </mxCell>
        <mxCell id="lCQpuxM8vOvWSEWwVI5c-75" style="edgeStyle=orthogonalEdgeStyle;rounded=0;orthogonalLoop=1;jettySize=auto;html=1;exitX=1;exitY=0.5;exitDx=0;exitDy=0;entryX=0.5;entryY=0;entryDx=0;entryDy=0;strokeWidth=5;" edge="1" parent="1" source="8" target="43">
          <mxGeometry relative="1" as="geometry">
            <Array as="points">
              <mxPoint x="1280" y="840" />
              <mxPoint x="1280" y="1320" />
              <mxPoint x="1181" y="1320" />
            </Array>
          </mxGeometry>
        </mxCell>
        <mxCell id="8" value="&lt;font style=&quot;font-size: 24px;&quot;&gt;fd&lt;/font&gt;" style="rounded=0;whiteSpace=wrap;html=1;" parent="1" vertex="1">
          <mxGeometry x="1121" y="800" width="120" height="80" as="geometry" />
        </mxCell>
        <mxCell id="lCQpuxM8vOvWSEWwVI5c-83" style="edgeStyle=orthogonalEdgeStyle;rounded=0;orthogonalLoop=1;jettySize=auto;html=1;exitX=1;exitY=0.5;exitDx=0;exitDy=0;entryX=0.5;entryY=0;entryDx=0;entryDy=0;strokeWidth=5;" edge="1" parent="1" source="9" target="49">
          <mxGeometry relative="1" as="geometry">
            <Array as="points">
              <mxPoint x="1320" y="920" />
              <mxPoint x="1320" y="1280" />
              <mxPoint x="1661" y="1280" />
            </Array>
          </mxGeometry>
        </mxCell>
        <mxCell id="9" value="&lt;font style=&quot;font-size: 24px;&quot;&gt;bk&lt;/font&gt;" style="rounded=0;whiteSpace=wrap;html=1;" parent="1" vertex="1">
          <mxGeometry x="1121" y="880" width="120" height="80" as="geometry" />
        </mxCell>
        <mxCell id="lCQpuxM8vOvWSEWwVI5c-93" style="edgeStyle=orthogonalEdgeStyle;rounded=0;orthogonalLoop=1;jettySize=auto;html=1;exitX=0;exitY=0.5;exitDx=0;exitDy=0;entryX=0.5;entryY=0;entryDx=0;entryDy=0;strokeWidth=5;" edge="1" parent="1" source="10" target="19">
          <mxGeometry relative="1" as="geometry">
            <Array as="points">
              <mxPoint x="1000" y="1000" />
              <mxPoint x="1000" y="520" />
              <mxPoint x="2140" y="520" />
            </Array>
          </mxGeometry>
        </mxCell>
        <mxCell id="10" value="&lt;font style=&quot;font-size: 18px;&quot;&gt;fd_nextsize&lt;/font&gt;" style="rounded=0;whiteSpace=wrap;html=1;" parent="1" vertex="1">
          <mxGeometry x="1121" y="960" width="120" height="80" as="geometry" />
        </mxCell>
        <mxCell id="lCQpuxM8vOvWSEWwVI5c-90" style="edgeStyle=orthogonalEdgeStyle;rounded=0;orthogonalLoop=1;jettySize=auto;html=1;exitX=1;exitY=0.5;exitDx=0;exitDy=0;entryX=0.5;entryY=0;entryDx=0;entryDy=0;strokeWidth=5;" edge="1" parent="1" source="11" target="13">
          <mxGeometry relative="1" as="geometry">
            <Array as="points">
              <mxPoint x="1400" y="1080" />
              <mxPoint x="1400" y="560" />
              <mxPoint x="1661" y="560" />
            </Array>
          </mxGeometry>
        </mxCell>
        <mxCell id="11" value="&lt;font style=&quot;font-size: 18px;&quot;&gt;bk_nextsize&lt;/font&gt;" style="rounded=0;whiteSpace=wrap;html=1;" parent="1" vertex="1">
          <mxGeometry x="1121" y="1040" width="120" height="80" as="geometry" />
        </mxCell>
        <mxCell id="12" value="" style="rounded=0;whiteSpace=wrap;html=1;" parent="1" vertex="1">
          <mxGeometry x="1601" y="720" width="120" height="400" as="geometry" />
        </mxCell>
        <mxCell id="13" value="&lt;font style=&quot;font-size: 24px;&quot;&gt;0x420&lt;/font&gt;" style="rounded=0;whiteSpace=wrap;html=1;" parent="1" vertex="1">
          <mxGeometry x="1601" y="720" width="120" height="80" as="geometry" />
        </mxCell>
        <mxCell id="lCQpuxM8vOvWSEWwVI5c-73" style="edgeStyle=orthogonalEdgeStyle;rounded=0;orthogonalLoop=1;jettySize=auto;html=1;entryX=0.5;entryY=0;entryDx=0;entryDy=0;exitX=1;exitY=0.5;exitDx=0;exitDy=0;strokeWidth=5;" edge="1" parent="1" source="14" target="49">
          <mxGeometry relative="1" as="geometry">
            <mxPoint x="1790" y="1020" as="sourcePoint" />
            <Array as="points">
              <mxPoint x="1760" y="840" />
              <mxPoint x="1760" y="1320" />
              <mxPoint x="1661" y="1320" />
            </Array>
          </mxGeometry>
        </mxCell>
        <mxCell id="14" value="&lt;font style=&quot;font-size: 24px;&quot;&gt;fd&lt;/font&gt;" style="rounded=0;whiteSpace=wrap;html=1;" parent="1" vertex="1">
          <mxGeometry x="1601" y="800" width="120" height="80" as="geometry" />
        </mxCell>
        <mxCell id="lCQpuxM8vOvWSEWwVI5c-85" style="edgeStyle=orthogonalEdgeStyle;rounded=0;orthogonalLoop=1;jettySize=auto;html=1;exitX=1;exitY=0.5;exitDx=0;exitDy=0;entryX=0.5;entryY=0;entryDx=0;entryDy=0;strokeWidth=5;" edge="1" parent="1" source="15" target="55">
          <mxGeometry relative="1" as="geometry">
            <Array as="points">
              <mxPoint x="1800" y="920" />
              <mxPoint x="1800" y="1280" />
              <mxPoint x="2140" y="1280" />
            </Array>
          </mxGeometry>
        </mxCell>
        <mxCell id="15" value="&lt;font style=&quot;font-size: 24px;&quot;&gt;bk&lt;/font&gt;" style="rounded=0;whiteSpace=wrap;html=1;" parent="1" vertex="1">
          <mxGeometry x="1601" y="880" width="120" height="80" as="geometry" />
        </mxCell>
        <mxCell id="lCQpuxM8vOvWSEWwVI5c-89" style="edgeStyle=orthogonalEdgeStyle;rounded=0;orthogonalLoop=1;jettySize=auto;html=1;exitX=0;exitY=0.5;exitDx=0;exitDy=0;entryX=0.5;entryY=0;entryDx=0;entryDy=0;strokeWidth=5;" edge="1" parent="1" source="16" target="3">
          <mxGeometry relative="1" as="geometry">
            <Array as="points">
              <mxPoint x="1480" y="1000" />
              <mxPoint x="1480" y="600" />
              <mxPoint x="1181" y="600" />
            </Array>
          </mxGeometry>
        </mxCell>
        <mxCell id="16" value="&lt;font style=&quot;font-size: 18px;&quot;&gt;fd_nextsize&lt;/font&gt;" style="rounded=0;whiteSpace=wrap;html=1;" parent="1" vertex="1">
          <mxGeometry x="1601" y="960" width="120" height="80" as="geometry" />
        </mxCell>
        <mxCell id="lCQpuxM8vOvWSEWwVI5c-91" style="edgeStyle=orthogonalEdgeStyle;rounded=0;orthogonalLoop=1;jettySize=auto;html=1;exitX=1;exitY=0.5;exitDx=0;exitDy=0;entryX=0.5;entryY=0;entryDx=0;entryDy=0;strokeWidth=5;" edge="1" parent="1" source="17" target="19">
          <mxGeometry relative="1" as="geometry">
            <Array as="points">
              <mxPoint x="1880" y="1080" />
              <mxPoint x="1880" y="560" />
              <mxPoint x="2140" y="560" />
            </Array>
          </mxGeometry>
        </mxCell>
        <mxCell id="17" value="&lt;font style=&quot;font-size: 18px;&quot;&gt;bk_nextsize&lt;/font&gt;" style="rounded=0;whiteSpace=wrap;html=1;" parent="1" vertex="1">
          <mxGeometry x="1601" y="1040" width="120" height="80" as="geometry" />
        </mxCell>
        <mxCell id="18" value="" style="rounded=0;whiteSpace=wrap;html=1;" parent="1" vertex="1">
          <mxGeometry x="2080" y="720" width="120" height="400" as="geometry" />
        </mxCell>
        <mxCell id="19" value="&lt;font style=&quot;font-size: 24px;&quot;&gt;0x430&lt;/font&gt;" style="rounded=0;whiteSpace=wrap;html=1;" parent="1" vertex="1">
          <mxGeometry x="2080" y="720" width="120" height="80" as="geometry" />
        </mxCell>
        <mxCell id="lCQpuxM8vOvWSEWwVI5c-71" style="edgeStyle=orthogonalEdgeStyle;rounded=0;orthogonalLoop=1;jettySize=auto;html=1;entryX=0.5;entryY=0;entryDx=0;entryDy=0;exitX=1;exitY=0.5;exitDx=0;exitDy=0;strokeWidth=5;" edge="1" parent="1" source="20" target="55">
          <mxGeometry relative="1" as="geometry">
            <Array as="points">
              <mxPoint x="2240" y="840" />
              <mxPoint x="2240" y="1320" />
              <mxPoint x="2140" y="1320" />
            </Array>
          </mxGeometry>
        </mxCell>
        <mxCell id="20" value="&lt;font style=&quot;font-size: 24px;&quot;&gt;fd&lt;/font&gt;" style="rounded=0;whiteSpace=wrap;html=1;" parent="1" vertex="1">
          <mxGeometry x="2080" y="800" width="120" height="80" as="geometry" />
        </mxCell>
        <mxCell id="lCQpuxM8vOvWSEWwVI5c-87" style="edgeStyle=orthogonalEdgeStyle;rounded=0;orthogonalLoop=1;jettySize=auto;html=1;exitX=1;exitY=0.5;exitDx=0;exitDy=0;entryX=0.5;entryY=0;entryDx=0;entryDy=0;strokeWidth=5;" edge="1" parent="1" source="21" target="61">
          <mxGeometry relative="1" as="geometry">
            <Array as="points">
              <mxPoint x="2280" y="920" />
              <mxPoint x="2280" y="40" />
              <mxPoint x="1660" y="40" />
            </Array>
          </mxGeometry>
        </mxCell>
        <mxCell id="21" value="&lt;font style=&quot;font-size: 24px;&quot;&gt;bk&lt;/font&gt;" style="rounded=0;whiteSpace=wrap;html=1;" parent="1" vertex="1">
          <mxGeometry x="2080" y="880" width="120" height="80" as="geometry" />
        </mxCell>
        <mxCell id="lCQpuxM8vOvWSEWwVI5c-88" style="edgeStyle=orthogonalEdgeStyle;rounded=0;orthogonalLoop=1;jettySize=auto;html=1;exitX=0;exitY=0.5;exitDx=0;exitDy=0;entryX=0.5;entryY=0;entryDx=0;entryDy=0;strokeWidth=5;" edge="1" parent="1" source="22" target="13">
          <mxGeometry relative="1" as="geometry">
            <Array as="points">
              <mxPoint x="1960" y="1000" />
              <mxPoint x="1960" y="600" />
              <mxPoint x="1661" y="600" />
            </Array>
          </mxGeometry>
        </mxCell>
        <mxCell id="22" value="&lt;font style=&quot;font-size: 18px;&quot;&gt;fd_nextsize&lt;/font&gt;" style="rounded=0;whiteSpace=wrap;html=1;" parent="1" vertex="1">
          <mxGeometry x="2080" y="960" width="120" height="80" as="geometry" />
        </mxCell>
        <mxCell id="lCQpuxM8vOvWSEWwVI5c-94" style="edgeStyle=orthogonalEdgeStyle;rounded=0;orthogonalLoop=1;jettySize=auto;html=1;exitX=1;exitY=0.5;exitDx=0;exitDy=0;entryX=0.5;entryY=0;entryDx=0;entryDy=0;strokeWidth=5;" edge="1" parent="1" source="23" target="3">
          <mxGeometry relative="1" as="geometry">
            <Array as="points">
              <mxPoint x="2360" y="1080" />
              <mxPoint x="2360" y="480" />
              <mxPoint x="1181" y="480" />
            </Array>
          </mxGeometry>
        </mxCell>
        <mxCell id="23" value="&lt;font style=&quot;font-size: 18px;&quot;&gt;bk_nextsize&lt;/font&gt;" style="rounded=0;whiteSpace=wrap;html=1;" parent="1" vertex="1">
          <mxGeometry x="2080" y="1040" width="120" height="80" as="geometry" />
        </mxCell>
        <mxCell id="42" value="" style="rounded=0;whiteSpace=wrap;html=1;" parent="1" vertex="1">
          <mxGeometry x="1121" y="1360" width="120" height="400" as="geometry" />
        </mxCell>
        <mxCell id="43" value="&lt;font style=&quot;font-size: 24px;&quot;&gt;0x410&lt;/font&gt;" style="rounded=0;whiteSpace=wrap;html=1;" parent="1" vertex="1">
          <mxGeometry x="1121" y="1360" width="120" height="80" as="geometry" />
        </mxCell>
        <mxCell id="lCQpuxM8vOvWSEWwVI5c-77" style="edgeStyle=orthogonalEdgeStyle;rounded=0;orthogonalLoop=1;jettySize=auto;html=1;exitX=0;exitY=0.5;exitDx=0;exitDy=0;entryX=0.5;entryY=0;entryDx=0;entryDy=0;strokeWidth=5;" edge="1" parent="1" source="44" target="61">
          <mxGeometry relative="1" as="geometry">
            <Array as="points">
              <mxPoint x="1080" y="1480" />
              <mxPoint x="1080" y="40" />
              <mxPoint x="1660" y="40" />
            </Array>
          </mxGeometry>
        </mxCell>
        <mxCell id="44" value="&lt;font style=&quot;font-size: 24px;&quot;&gt;fd&lt;/font&gt;" style="rounded=0;whiteSpace=wrap;html=1;" parent="1" vertex="1">
          <mxGeometry x="1121" y="1440" width="120" height="80" as="geometry" />
        </mxCell>
        <mxCell id="lCQpuxM8vOvWSEWwVI5c-81" style="edgeStyle=orthogonalEdgeStyle;rounded=0;orthogonalLoop=1;jettySize=auto;html=1;exitX=0;exitY=0.5;exitDx=0;exitDy=0;entryX=0.5;entryY=0;entryDx=0;entryDy=0;strokeWidth=5;" edge="1" parent="1" source="45" target="3">
          <mxGeometry relative="1" as="geometry">
            <Array as="points">
              <mxPoint x="1020" y="1560" />
              <mxPoint x="1020" y="640" />
              <mxPoint x="1181" y="640" />
            </Array>
          </mxGeometry>
        </mxCell>
        <mxCell id="45" value="&lt;font style=&quot;font-size: 24px;&quot;&gt;bk&lt;/font&gt;" style="rounded=0;whiteSpace=wrap;html=1;" parent="1" vertex="1">
          <mxGeometry x="1121" y="1520" width="120" height="80" as="geometry" />
        </mxCell>
        <mxCell id="46" value="&lt;font style=&quot;font-size: 18px;&quot;&gt;fd_nextsize&lt;/font&gt;" style="rounded=0;whiteSpace=wrap;html=1;" parent="1" vertex="1">
          <mxGeometry x="1121" y="1600" width="120" height="80" as="geometry" />
        </mxCell>
        <mxCell id="47" value="&lt;font style=&quot;font-size: 18px;&quot;&gt;bk_nextsize&lt;/font&gt;" style="rounded=0;whiteSpace=wrap;html=1;" parent="1" vertex="1">
          <mxGeometry x="1121" y="1680" width="120" height="80" as="geometry" />
        </mxCell>
        <mxCell id="48" value="" style="rounded=0;whiteSpace=wrap;html=1;" parent="1" vertex="1">
          <mxGeometry x="1601" y="1360" width="120" height="400" as="geometry" />
        </mxCell>
        <mxCell id="49" value="&lt;font style=&quot;font-size: 24px;&quot;&gt;0x420&lt;/font&gt;" style="rounded=0;whiteSpace=wrap;html=1;" parent="1" vertex="1">
          <mxGeometry x="1601" y="1360" width="120" height="80" as="geometry" />
        </mxCell>
        <mxCell id="lCQpuxM8vOvWSEWwVI5c-74" style="edgeStyle=orthogonalEdgeStyle;rounded=0;orthogonalLoop=1;jettySize=auto;html=1;exitX=0;exitY=0.5;exitDx=0;exitDy=0;entryX=0.5;entryY=0;entryDx=0;entryDy=0;strokeWidth=5;" edge="1" parent="1" source="50" target="3">
          <mxGeometry relative="1" as="geometry">
            <Array as="points">
              <mxPoint x="1560" y="1480" />
              <mxPoint x="1560" y="680" />
              <mxPoint x="1181" y="680" />
            </Array>
          </mxGeometry>
        </mxCell>
        <mxCell id="lCQpuxM8vOvWSEWwVI5c-84" style="edgeStyle=orthogonalEdgeStyle;rounded=0;orthogonalLoop=1;jettySize=auto;html=1;exitX=0;exitY=0.5;exitDx=0;exitDy=0;entryX=0.5;entryY=0;entryDx=0;entryDy=0;strokeWidth=5;" edge="1" parent="1" source="51" target="13">
          <mxGeometry relative="1" as="geometry">
            <Array as="points">
              <mxPoint x="1520" y="1560" />
              <mxPoint x="1520" y="640" />
              <mxPoint x="1661" y="640" />
            </Array>
          </mxGeometry>
        </mxCell>
        <mxCell id="50" value="&lt;font style=&quot;font-size: 24px;&quot;&gt;fd&lt;/font&gt;" style="rounded=0;whiteSpace=wrap;html=1;" parent="1" vertex="1">
          <mxGeometry x="1601" y="1440" width="120" height="80" as="geometry" />
        </mxCell>
        <mxCell id="51" value="&lt;font style=&quot;font-size: 24px;&quot;&gt;bk&lt;/font&gt;" style="rounded=0;whiteSpace=wrap;html=1;" parent="1" vertex="1">
          <mxGeometry x="1601" y="1520" width="120" height="80" as="geometry" />
        </mxCell>
        <mxCell id="52" value="&lt;font style=&quot;font-size: 18px;&quot;&gt;fd_nextsize&lt;/font&gt;" style="rounded=0;whiteSpace=wrap;html=1;" parent="1" vertex="1">
          <mxGeometry x="1601" y="1600" width="120" height="80" as="geometry" />
        </mxCell>
        <mxCell id="53" value="&lt;font style=&quot;font-size: 18px;&quot;&gt;bk_nextsize&lt;/font&gt;" style="rounded=0;whiteSpace=wrap;html=1;" parent="1" vertex="1">
          <mxGeometry x="1601" y="1680" width="120" height="80" as="geometry" />
        </mxCell>
        <mxCell id="54" value="" style="rounded=0;whiteSpace=wrap;html=1;" parent="1" vertex="1">
          <mxGeometry x="2080" y="1360" width="120" height="400" as="geometry" />
        </mxCell>
        <mxCell id="55" value="&lt;font style=&quot;font-size: 24px;&quot;&gt;0x430&lt;/font&gt;" style="rounded=0;whiteSpace=wrap;html=1;" parent="1" vertex="1">
          <mxGeometry x="2080" y="1360" width="120" height="80" as="geometry" />
        </mxCell>
        <mxCell id="lCQpuxM8vOvWSEWwVI5c-72" style="edgeStyle=orthogonalEdgeStyle;rounded=0;orthogonalLoop=1;jettySize=auto;html=1;exitX=0;exitY=0.5;exitDx=0;exitDy=0;entryX=0.5;entryY=0;entryDx=0;entryDy=0;strokeWidth=5;" edge="1" parent="1" source="56" target="13">
          <mxGeometry relative="1" as="geometry">
            <Array as="points">
              <mxPoint x="2040" y="1480" />
              <mxPoint x="2040" y="680" />
              <mxPoint x="1661" y="680" />
            </Array>
          </mxGeometry>
        </mxCell>
        <mxCell id="56" value="&lt;font style=&quot;font-size: 24px;&quot;&gt;fd&lt;/font&gt;" style="rounded=0;whiteSpace=wrap;html=1;" parent="1" vertex="1">
          <mxGeometry x="2080" y="1440" width="120" height="80" as="geometry" />
        </mxCell>
        <mxCell id="lCQpuxM8vOvWSEWwVI5c-86" style="edgeStyle=orthogonalEdgeStyle;rounded=0;orthogonalLoop=1;jettySize=auto;html=1;exitX=0;exitY=0.5;exitDx=0;exitDy=0;entryX=0.5;entryY=0;entryDx=0;entryDy=0;strokeWidth=5;" edge="1" parent="1" source="57" target="19">
          <mxGeometry relative="1" as="geometry">
            <Array as="points">
              <mxPoint x="2000" y="1560" />
              <mxPoint x="2000" y="640" />
              <mxPoint x="2140" y="640" />
            </Array>
          </mxGeometry>
        </mxCell>
        <mxCell id="57" value="&lt;font style=&quot;font-size: 24px;&quot;&gt;bk&lt;/font&gt;" style="rounded=0;whiteSpace=wrap;html=1;" parent="1" vertex="1">
          <mxGeometry x="2080" y="1520" width="120" height="80" as="geometry" />
        </mxCell>
        <mxCell id="58" value="&lt;font style=&quot;font-size: 18px;&quot;&gt;fd_nextsize&lt;/font&gt;" style="rounded=0;whiteSpace=wrap;html=1;" parent="1" vertex="1">
          <mxGeometry x="2080" y="1600" width="120" height="80" as="geometry" />
        </mxCell>
        <mxCell id="59" value="&lt;font style=&quot;font-size: 18px;&quot;&gt;bk_nextsize&lt;/font&gt;" style="rounded=0;whiteSpace=wrap;html=1;" parent="1" vertex="1">
          <mxGeometry x="2080" y="1680" width="120" height="80" as="geometry" />
        </mxCell>
        <mxCell id="60" value="" style="rounded=0;whiteSpace=wrap;html=1;fontSize=18;" parent="1" vertex="1">
          <mxGeometry x="1601" y="80" width="119" height="240" as="geometry" />
        </mxCell>
        <mxCell id="61" value="large bin" style="rounded=0;whiteSpace=wrap;html=1;fontSize=18;" parent="1" vertex="1">
          <mxGeometry x="1600" y="80" width="120" height="80" as="geometry" />
        </mxCell>
        <mxCell id="66" style="edgeStyle=none;html=1;exitX=1;exitY=0.5;exitDx=0;exitDy=0;entryX=0.5;entryY=0;entryDx=0;entryDy=0;fontSize=24;strokeWidth=5;endSize=6;startSize=6;" parent="1" source="64" target="19" edge="1">
          <mxGeometry relative="1" as="geometry">
            <Array as="points">
              <mxPoint x="2140" y="200" />
            </Array>
          </mxGeometry>
        </mxCell>
        <mxCell id="64" value="&lt;font style=&quot;font-size: 24px;&quot;&gt;FD&lt;/font&gt;" style="rounded=0;whiteSpace=wrap;html=1;fontSize=18;" parent="1" vertex="1">
          <mxGeometry x="1600" y="160" width="120" height="80" as="geometry" />
        </mxCell>
        <mxCell id="lCQpuxM8vOvWSEWwVI5c-78" style="edgeStyle=orthogonalEdgeStyle;rounded=0;orthogonalLoop=1;jettySize=auto;html=1;exitX=0;exitY=0.5;exitDx=0;exitDy=0;entryX=0.5;entryY=0;entryDx=0;entryDy=0;strokeWidth=5;" edge="1" parent="1" source="65" target="43">
          <mxGeometry relative="1" as="geometry">
            <Array as="points">
              <mxPoint x="1040" y="280" />
              <mxPoint x="1040" y="1280" />
              <mxPoint x="1181" y="1280" />
            </Array>
          </mxGeometry>
        </mxCell>
        <mxCell id="65" value="&lt;font style=&quot;font-size: 24px;&quot;&gt;BK&lt;/font&gt;" style="rounded=0;whiteSpace=wrap;html=1;fontSize=18;" parent="1" vertex="1">
          <mxGeometry x="1600" y="240" width="120" height="80" as="geometry" />
        </mxCell>
      </root>
    </mxGraphModel>
  </diagram>
</mxfile>
